<svg width="108" height="111" viewBox="0 0 108 111" fill="none" xmlns="http://www.w3.org/2000/svg">
<path d="M16.4639 50.2441H19.3203L28.4512 30.7861L37.6553 50.2441H40.5361L53.6709 10.6445H42.3672L36.9473 28.6133L28.8906 10.7178H28.1094L20.0527 28.6621L14.6084 10.6445H3.30469L16.4639 50.2441Z" fill="black"/>
<path d="M81.4756 51.001C93.7314 51.001 103.106 42.0898 103.106 30.3711C103.106 18.5547 93.7314 9.59473 81.5 9.59473C69.2686 9.59473 59.8936 18.5547 59.8936 30.3711C59.8936 42.0898 69.2441 51.001 81.4756 51.001ZM81.5 41.0156C75.25 41.0156 70.4648 36.3525 70.4648 30.2979C70.4648 24.2188 75.25 19.5312 81.5 19.5312C87.75 19.5312 92.5352 24.2188 92.5352 30.2979C92.5352 36.3525 87.75 41.0156 81.5 41.0156Z" fill="black"/>
<path d="M38.8262 99H50.2764L31.9658 59.1562H27.0098L8.72363 99H20.1494L22.1514 94.4102H36.8486L38.8262 99ZM25.4473 86.7686L29.5 77.4424L33.5283 86.7686H25.4473Z" fill="black"/>
<path d="M102.631 97.3154C99.457 97.2422 96.3076 96.8516 93.6221 96.2168C99.042 92.5303 102.484 86.4756 102.484 79.3711C102.484 67.5547 93.1094 58.5947 80.8779 58.5947C68.6465 58.5947 59.2715 67.5547 59.2715 79.3711C59.2715 91.0898 68.6221 100.001 80.8535 100.001C81.8545 100.001 82.8311 99.9521 83.8076 99.8301C87.3721 103.175 91.9375 106.104 99.0664 106.617L102.631 97.3154ZM69.8428 79.2979C69.8428 73.2188 74.6279 68.5312 80.8779 68.5312C87.1279 68.5312 91.9131 73.2188 91.9131 79.2979C91.9131 85.3525 87.1279 90.0156 80.8779 90.0156C74.6279 90.0156 69.8428 85.3525 69.8428 79.2979Z" fill="black"/>
</svg>
