<svg width="256" height="256" viewBox="0 0 256 256" fill="none" xmlns="http://www.w3.org/2000/svg">
<g clip-path="url(#clip0_3264_13120)">
<path d="M49.2991 123.005H27.7902C27.2352 123.005 26.7847 123.456 26.7847 124.011V134.527C26.7847 135.082 27.2352 135.533 27.7902 135.533H36.1807V148.599C36.1807 148.599 34.2968 149.24 29.0878 149.24C22.9429 149.24 14.3584 146.996 14.3584 128.118C14.3584 109.237 23.2976 106.753 31.6895 106.753C38.9536 106.753 42.0833 108.032 44.0745 108.648C44.7005 108.839 45.279 108.217 45.279 107.662L47.6788 97.5011C47.6788 97.241 47.5907 96.9283 47.2951 96.7158C46.4864 96.1388 41.5524 93.3779 29.0878 93.3779C14.7294 93.3779 0 99.4873 0 128.854C0 158.222 16.8634 162.598 31.0741 162.598C42.8401 162.598 49.9777 157.571 49.9777 157.571C50.272 157.409 50.3039 156.997 50.3039 156.809V124.011C50.3039 123.456 49.8541 123.005 49.2991 123.005Z" fill="#0E0D0D"/>
<path d="M160.147 96.897C160.147 96.3377 159.704 95.8857 159.149 95.8857H147.038C146.485 95.8857 146.036 96.3377 146.036 96.897C146.036 96.8998 146.038 120.302 146.038 120.302H127.161V96.897C127.161 96.3377 126.715 95.8857 126.161 95.8857H114.051C113.5 95.8857 113.051 96.3377 113.051 96.897V160.27C113.051 160.829 113.5 161.284 114.051 161.284H126.161C126.715 161.284 127.161 160.829 127.161 160.27V133.163H146.038C146.038 133.163 146.006 160.268 146.006 160.27C146.006 160.829 146.454 161.284 147.009 161.284H159.148C159.703 161.284 160.146 160.829 160.147 160.27V96.897Z" fill="#0E0D0D"/>
<path d="M72.1528 105.213C72.1528 100.853 68.6565 97.3278 64.3422 97.3278C60.0329 97.3278 56.5344 100.853 56.5344 105.213C56.5344 109.569 60.0329 113.103 64.3422 113.103C68.6565 113.103 72.1528 109.569 72.1528 105.213Z" fill="#0E0D0D"/>
<path d="M71.287 159.657V117.648C71.287 117.093 70.8393 116.639 70.285 116.639H58.2127C57.6584 116.639 57.1631 117.21 57.1631 117.766V159.677C57.1631 160.908 57.9306 161.274 58.924 161.274H69.8011C70.9942 161.274 71.287 160.688 71.287 159.657Z" fill="#0E0D0D"/>
<path d="M206.173 116.734H194.155C193.604 116.734 193.156 117.188 193.156 117.748V148.821C193.156 148.821 190.102 151.055 185.769 151.055C181.435 151.055 180.285 149.089 180.285 144.846V117.748C180.285 117.188 179.838 116.734 179.286 116.734H167.089C166.539 116.734 166.087 117.188 166.087 117.748V146.897C166.087 159.501 173.111 162.584 182.774 162.584C190.702 162.584 197.093 158.204 197.093 158.204C197.093 158.204 197.397 160.513 197.535 160.786C197.672 161.059 198.031 161.335 198.419 161.335L206.179 161.301C206.729 161.301 207.18 160.846 207.18 160.289L207.176 117.748C207.176 117.188 206.727 116.734 206.173 116.734Z" fill="#0E0D0D"/>
<path d="M234.28 151.017C230.112 150.889 227.284 148.998 227.284 148.998V128.929C227.284 128.929 230.073 127.219 233.496 126.914C237.824 126.527 241.994 127.833 241.994 138.158C241.994 149.044 240.112 151.193 234.28 151.017ZM239.02 115.311C232.195 115.311 227.552 118.356 227.552 118.356V96.8965C227.552 96.3372 227.104 95.8853 226.553 95.8853H214.407C213.855 95.8853 213.407 96.3372 213.407 96.8965V160.27C213.407 160.829 213.855 161.284 214.409 161.284H222.835C223.215 161.284 223.502 161.088 223.715 160.745C223.924 160.405 224.226 157.824 224.226 157.824C224.226 157.824 229.192 162.53 238.593 162.53C249.631 162.53 255.96 156.931 255.96 137.397C255.96 117.863 245.851 115.311 239.02 115.311Z" fill="#0E0D0D"/>
<path d="M106.094 116.634H97.009C97.009 116.634 96.9955 104.635 96.9955 104.632C96.9955 104.178 96.7617 103.95 96.2359 103.95H83.8565C83.3754 103.95 83.1168 104.163 83.1168 104.625V117.027C83.1168 117.027 76.9129 118.525 76.4936 118.646C76.0758 118.767 75.7681 119.152 75.7681 119.612V127.406C75.7681 127.965 76.2158 128.418 76.7694 128.418H83.1168V147.168C83.1168 161.093 92.8852 162.461 99.4764 162.461C102.489 162.461 106.092 161.494 106.687 161.275C107.046 161.142 107.256 160.77 107.256 160.366L107.266 151.792C107.266 151.233 106.793 150.781 106.262 150.781C105.732 150.781 104.378 150.996 102.983 150.996C98.5213 150.996 97.009 148.921 97.009 146.236C97.009 143.552 97.0083 128.418 97.0083 128.418H106.094C106.647 128.418 107.097 127.965 107.097 127.406V117.643C107.097 117.084 106.647 116.634 106.094 116.634Z" fill="#0E0D0D"/>
</g>
<defs>
<clipPath id="clip0_3264_13120">
<rect width="256" height="256" fill="white"/>
</clipPath>
</defs>
</svg>
