<?xml version="1.0" encoding="UTF-8" standalone="no"?>
<!DOCTYPE svg PUBLIC "-//W3C//DTD SVG 1.1//EN" "http://www.w3.org/Graphics/SVG/1.1/DTD/svg11.dtd">
<svg width="100%" height="100%" viewBox="0 0 1501 406" version="1.1" xmlns="http://www.w3.org/2000/svg" xmlns:xlink="http://www.w3.org/1999/xlink" xml:space="preserve" xmlns:serif="http://www.serif.com/" style="fill-rule:evenodd;clip-rule:evenodd;stroke-linejoin:round;stroke-miterlimit:2;">
    <g transform="matrix(1,0,0,1,-449.618,-397.07)">
        <g transform="matrix(4.16667,0,0,4.16667,0,0)">
            <g transform="matrix(1,0,0,1,177.281,151.012)">
                <path d="M0,-14.024L-30.267,-14.024C-31.048,-14.024 -31.682,-13.39 -31.682,-12.609L-31.682,2.189C-31.682,2.97 -31.048,3.605 -30.267,3.605L-18.46,3.605L-18.46,21.991C-18.46,21.991 -21.111,22.894 -28.441,22.894C-37.088,22.894 -49.168,19.735 -49.168,-6.829C-49.168,-33.398 -36.589,-36.894 -24.78,-36.894C-14.558,-36.894 -10.154,-35.094 -7.352,-34.227C-6.471,-33.958 -5.657,-34.834 -5.657,-35.615L-2.28,-49.913C-2.28,-50.279 -2.404,-50.719 -2.82,-51.018C-3.958,-51.83 -10.901,-55.715 -28.441,-55.715C-48.646,-55.715 -69.373,-47.118 -69.373,-5.793C-69.373,35.533 -45.643,41.691 -25.646,41.691C-9.089,41.691 0.955,34.616 0.955,34.616C1.369,34.388 1.414,33.809 1.414,33.544L1.414,-12.609C1.414,-13.39 0.781,-14.024 0,-14.024" style="fill:rgb(14,13,13);fill-rule:nonzero;"/>
            </g>
        </g>
        <g transform="matrix(4.16667,0,0,4.16667,0,0)">
            <g transform="matrix(1,0,0,1,333.265,189.43)">
                <path d="M0,-89.181C0,-89.968 -0.624,-90.604 -1.405,-90.604L-18.447,-90.604C-19.226,-90.604 -19.858,-89.968 -19.858,-89.181C-19.858,-89.177 -19.854,-56.246 -19.854,-56.246L-46.418,-56.246L-46.418,-89.181C-46.418,-89.968 -47.045,-90.604 -47.825,-90.604L-64.866,-90.604C-65.641,-90.604 -66.273,-89.968 -66.273,-89.181L-66.273,-0.003C-66.273,0.783 -65.641,1.423 -64.866,1.423L-47.825,1.423C-47.045,1.423 -46.418,0.783 -46.418,-0.003L-46.418,-38.148L-19.854,-38.148C-19.854,-38.148 -19.9,-0.006 -19.9,-0.003C-19.9,0.783 -19.269,1.423 -18.488,1.423L-1.406,1.423C-0.626,1.423 -0.002,0.783 0,-0.003L0,-89.181Z" style="fill:rgb(14,13,13);fill-rule:nonzero;"/>
            </g>
        </g>
        <g transform="matrix(4.16667,0,0,4.16667,0,0)">
            <g transform="matrix(0,-1,-1,0,198.448,100.966)">
                <path d="M-10.985,-10.993C-4.849,-10.993 0.111,-6.073 0.111,-0.002C0.111,6.062 -4.849,10.985 -10.985,10.985C-17.115,10.985 -22.087,6.062 -22.087,-0.002C-22.087,-6.073 -17.115,-10.993 -10.985,-10.993" style="fill:rgb(14,13,13);fill-rule:nonzero;"/>
            </g>
        </g>
        <g transform="matrix(4.16667,0,0,4.16667,0,0)">
            <g transform="matrix(1,0,0,1,208.222,148.255)">
                <path d="M0,40.309L0,-18.805C0,-19.586 -0.63,-20.225 -1.41,-20.225L-18.398,-20.225C-19.178,-20.225 -19.875,-19.422 -19.875,-18.64L-19.875,40.337C-19.875,42.069 -18.795,42.585 -17.397,42.585L-2.091,42.585C-0.412,42.585 0,41.76 0,40.309Z" style="fill:rgb(14,13,13);fill-rule:nonzero;"/>
            </g>
        </g>
        <g transform="matrix(4.16667,0,0,4.16667,0,0)">
            <g transform="matrix(1,0,0,1,398.032,192.683)">
                <path d="M0,-64.519L-16.911,-64.519C-17.687,-64.519 -18.318,-63.88 -18.318,-63.093L-18.318,-19.367C-18.318,-19.367 -22.615,-16.223 -28.713,-16.223C-34.811,-16.223 -36.429,-18.99 -36.429,-24.961L-36.429,-63.093C-36.429,-63.88 -37.059,-64.519 -37.835,-64.519L-54.999,-64.519C-55.773,-64.519 -56.408,-63.88 -56.408,-63.093L-56.408,-22.074C-56.408,-4.339 -46.524,0 -32.927,0C-21.771,0 -12.777,-6.163 -12.777,-6.163C-12.777,-6.163 -12.35,-2.915 -12.155,-2.53C-11.962,-2.146 -11.457,-1.758 -10.911,-1.758L0.008,-1.806C0.782,-1.806 1.417,-2.446 1.417,-3.23L1.411,-63.093C1.411,-63.88 0.779,-64.519 0,-64.519" style="fill:rgb(14,13,13);fill-rule:nonzero;"/>
            </g>
        </g>
        <g transform="matrix(4.16667,0,0,4.16667,0,0)">
            <g transform="matrix(1,0,0,1,437.584,115.026)">
                <path d="M0,61.379C-5.866,61.2 -9.845,58.539 -9.845,58.539L-9.845,30.298C-9.845,30.298 -5.92,27.892 -1.104,27.462C4.986,26.917 10.854,28.756 10.854,43.284C10.854,58.603 8.206,61.627 0,61.379M6.67,11.134C-2.935,11.134 -9.468,15.42 -9.468,15.42L-9.468,-14.778C-9.468,-15.565 -10.098,-16.201 -10.874,-16.201L-27.965,-16.201C-28.742,-16.201 -29.373,-15.565 -29.373,-14.778L-29.373,74.4C-29.373,75.187 -28.742,75.827 -27.963,75.827L-16.105,75.827C-15.571,75.827 -15.167,75.551 -14.868,75.069C-14.573,74.59 -14.148,70.958 -14.148,70.958C-14.148,70.958 -7.16,77.58 6.069,77.58C21.601,77.58 30.508,69.702 30.508,42.214C30.508,14.726 16.282,11.134 6.67,11.134" style="fill:rgb(14,13,13);fill-rule:nonzero;"/>
            </g>
        </g>
        <g transform="matrix(4.16667,0,0,4.16667,0,0)">
            <g transform="matrix(1,0,0,1,257.202,174.662)">
                <path d="M0,-46.64L-12.784,-46.64C-12.784,-46.64 -12.803,-63.525 -12.803,-63.529C-12.803,-64.168 -13.132,-64.488 -13.872,-64.488L-31.292,-64.488C-31.969,-64.488 -32.333,-64.189 -32.333,-63.538L-32.333,-46.086C-32.333,-46.086 -41.063,-43.979 -41.653,-43.808C-42.241,-43.638 -42.674,-43.096 -42.674,-42.449L-42.674,-31.482C-42.674,-30.694 -42.044,-30.057 -41.265,-30.057L-32.333,-30.057L-32.333,-3.673C-32.333,15.923 -18.587,17.848 -9.312,17.848C-5.073,17.848 -0.003,16.487 0.834,16.178C1.34,15.992 1.635,15.468 1.635,14.9L1.649,2.835C1.649,2.048 0.984,1.411 0.236,1.411C-0.509,1.411 -2.415,1.714 -4.377,1.714C-10.656,1.714 -12.784,-1.205 -12.784,-4.984C-12.784,-8.761 -12.785,-30.057 -12.785,-30.057L0,-30.057C0.779,-30.057 1.411,-30.694 1.411,-31.482L1.411,-45.219C1.411,-46.006 0.779,-46.64 0,-46.64" style="fill:rgb(14,13,13);fill-rule:nonzero;"/>
            </g>
        </g>
    </g>
</svg>
