<?xml version="1.0" encoding="UTF-8" standalone="no"?>
<!DOCTYPE svg PUBLIC "-//W3C//DTD SVG 1.1//EN" "http://www.w3.org/Graphics/SVG/1.1/DTD/svg11.dtd">
<svg width="100%" height="100%" viewBox="0 0 4167 1063" version="1.1" xmlns="http://www.w3.org/2000/svg" xmlns:xlink="http://www.w3.org/1999/xlink" xml:space="preserve" xmlns:serif="http://www.serif.com/" style="fill-rule:evenodd;clip-rule:evenodd;stroke-linejoin:round;stroke-miterlimit:2;">
    <g transform="matrix(4.16667,0,0,4.16667,0,0)">
        <path d="M147.138,59.029C145.617,62.703 147.361,66.915 151.035,68.437C154.709,69.959 158.921,68.214 160.442,64.54C161.964,60.866 160.219,56.655 156.546,55.133C152.872,53.611 148.66,55.356 147.138,59.029Z" style="fill:rgb(28,183,143);fill-rule:nonzero;"/>
        <path d="M171.627,72.014C168.815,74.825 168.815,79.384 171.627,82.196C174.439,85.008 178.998,85.008 181.809,82.196C184.621,79.384 184.621,74.825 181.809,72.014C178.998,69.202 174.439,69.202 171.627,72.014Z" style="fill:rgb(28,183,143);fill-rule:nonzero;"/>
        <path d="M194.793,106.684C198.467,105.163 200.212,100.951 198.69,97.277C197.168,93.604 192.957,91.859 189.283,93.381C185.609,94.903 183.864,99.114 185.386,102.788C186.908,106.461 191.12,108.206 194.793,106.684Z" style="fill:rgb(28,183,143);fill-rule:nonzero;"/>
        <path d="M204.618,127.078C204.618,123.101 201.394,119.878 197.418,119.878C193.441,119.878 190.218,123.101 190.218,127.078C190.218,131.054 193.441,134.278 197.418,134.278C201.394,134.278 204.618,131.054 204.618,127.078Z" style="fill:rgb(28,183,143);fill-rule:nonzero;"/>
        <path d="M189.283,160.775C192.956,162.297 197.168,160.552 198.69,156.878C200.212,153.205 198.467,148.993 194.793,147.471C191.119,145.949 186.908,147.694 185.386,151.368C183.864,155.041 185.609,159.253 189.283,160.775Z" style="fill:rgb(28,183,143);fill-rule:nonzero;"/>
        <path d="M181.809,171.96C178.997,169.148 174.438,169.148 171.627,171.96C168.815,174.771 168.815,179.33 171.627,182.142C174.438,184.954 178.997,184.954 181.809,182.142C184.621,179.33 184.621,174.771 181.809,171.96Z" style="fill:rgb(28,183,143);fill-rule:nonzero;"/>
        <path d="M160.442,189.615C158.92,185.942 154.708,184.197 151.035,185.719C147.361,187.241 145.616,191.452 147.138,195.126C148.66,198.8 152.871,200.544 156.545,199.023C160.219,197.501 161.964,193.289 160.442,189.615Z" style="fill:rgb(28,183,143);fill-rule:nonzero;"/>
        <path d="M126.744,190.55C122.768,190.55 119.544,193.774 119.544,197.75C119.544,201.727 122.768,204.95 126.744,204.95C130.72,204.95 133.945,201.727 133.945,197.75C133.945,193.774 130.72,190.55 126.744,190.55Z" style="fill:rgb(28,183,143);fill-rule:nonzero;"/>
        <path d="M106.351,195.126C107.873,191.452 106.128,187.24 102.454,185.719C98.78,184.197 94.568,185.941 93.047,189.615C91.525,193.289 93.27,197.501 96.943,199.023C100.618,200.544 104.829,198.8 106.351,195.126Z" style="fill:rgb(28,183,143);fill-rule:nonzero;"/>
        <path d="M81.862,182.142C84.674,179.33 84.674,174.771 81.862,171.959C79.05,169.148 74.491,169.148 71.68,171.959C68.868,174.771 68.868,179.33 71.68,182.142C74.491,184.954 79.05,184.954 81.862,182.142Z" style="fill:rgb(28,183,143);fill-rule:nonzero;"/>
        <path d="M54.799,156.878C56.321,160.552 60.532,162.296 64.206,160.775C67.88,159.253 69.625,155.041 68.103,151.367C66.581,147.693 62.369,145.949 58.696,147.471C55.022,148.992 53.277,153.204 54.799,156.878Z" style="fill:rgb(28,183,143);fill-rule:nonzero;"/>
        <path d="M48.871,127.077C48.871,131.054 52.095,134.277 56.071,134.277C60.048,134.277 63.271,131.054 63.271,127.077C63.271,123.101 60.048,119.877 56.071,119.877C52.095,119.877 48.871,123.101 48.871,127.077Z" style="fill:rgb(28,183,143);fill-rule:nonzero;"/>
        <path d="M64.206,93.38C60.533,91.859 56.321,93.603 54.799,97.277C53.277,100.95 55.022,105.162 58.696,106.684C62.37,108.206 66.581,106.461 68.103,102.787C69.625,99.114 67.88,94.902 64.206,93.38Z" style="fill:rgb(28,183,143);fill-rule:nonzero;"/>
        <path d="M71.68,82.196C74.492,85.007 79.051,85.007 81.862,82.196C84.674,79.384 84.674,74.825 81.862,72.013C79.051,69.201 74.492,69.201 71.68,72.013C68.868,74.825 68.868,79.384 71.68,82.196Z" style="fill:rgb(28,183,143);fill-rule:nonzero;"/>
        <path d="M93.047,64.54C94.569,68.214 98.781,69.958 102.455,68.437C106.129,66.915 107.873,62.703 106.352,59.029C104.83,55.356 100.618,53.611 96.944,55.133C93.27,56.654 91.525,60.866 93.047,64.54Z" style="fill:rgb(28,183,143);fill-rule:nonzero;"/>
        <path d="M126.745,63.605C130.72,63.605 133.945,60.382 133.945,56.405C133.945,52.429 130.72,49.205 126.745,49.205C122.769,49.205 119.545,52.429 119.545,56.405C119.545,60.382 122.769,63.605 126.745,63.605Z" style="fill:rgb(28,183,143);fill-rule:nonzero;"/>
        <path d="M157.972,51.689C160.115,52.577 162.572,51.559 163.46,49.416C164.347,47.273 163.33,44.816 161.187,43.929C159.044,43.041 156.587,44.059 155.699,46.202C154.811,48.345 155.829,50.801 157.972,51.689Z" style="fill:rgb(28,183,143);fill-rule:nonzero;"/>
        <path d="M190.385,69.378C192.025,67.738 192.025,65.078 190.385,63.438C188.745,61.798 186.085,61.798 184.445,63.438C182.805,65.078 182.805,67.738 184.445,69.378C186.085,71.018 188.745,71.018 190.385,69.378Z" style="fill:rgb(28,183,143);fill-rule:nonzero;"/>
        <path d="M202.134,95.851C203.021,97.994 205.478,99.012 207.621,98.124C209.764,97.236 210.782,94.78 209.894,92.637C209.007,90.493 206.55,89.476 204.407,90.363C202.264,91.251 201.246,93.708 202.134,95.851Z" style="fill:rgb(28,183,143);fill-rule:nonzero;"/>
        <path d="M212.545,122.878C210.226,122.878 208.345,124.758 208.345,127.078C208.345,129.397 210.226,131.278 212.545,131.278C214.865,131.278 216.745,129.397 216.745,127.078C216.745,124.758 214.865,122.878 212.545,122.878Z" style="fill:rgb(28,183,143);fill-rule:nonzero;"/>
        <path d="M207.621,156.032C205.478,155.144 203.021,156.162 202.134,158.305C201.246,160.448 202.264,162.905 204.407,163.792C206.55,164.68 209.007,163.662 209.894,161.519C210.782,159.376 209.764,156.919 207.621,156.032Z" style="fill:rgb(28,183,143);fill-rule:nonzero;"/>
        <path d="M184.445,184.778C182.805,186.418 182.805,189.077 184.445,190.718C186.085,192.358 188.744,192.358 190.384,190.718C192.025,189.077 192.025,186.418 190.384,184.778C188.744,183.138 186.085,183.138 184.445,184.778Z" style="fill:rgb(28,183,143);fill-rule:nonzero;"/>
        <path d="M157.972,202.466C155.829,203.354 154.811,205.811 155.699,207.954C156.586,210.097 159.043,211.115 161.186,210.227C163.329,209.339 164.347,206.882 163.459,204.739C162.572,202.596 160.115,201.579 157.972,202.466Z" style="fill:rgb(28,183,143);fill-rule:nonzero;"/>
        <path d="M126.744,208.678C124.425,208.678 122.544,210.558 122.544,212.878C122.544,215.197 124.425,217.078 126.744,217.078C129.063,217.078 130.945,215.197 130.945,212.878C130.945,210.558 129.063,208.678 126.744,208.678Z" style="fill:rgb(28,183,143);fill-rule:nonzero;"/>
        <path d="M95.517,202.466C93.374,201.579 90.917,202.596 90.029,204.739C89.142,206.882 90.159,209.339 92.302,210.227C94.445,211.115 96.902,210.097 97.79,207.954C98.678,205.811 97.66,203.354 95.517,202.466Z" style="fill:rgb(28,183,143);fill-rule:nonzero;"/>
        <path d="M63.104,184.777C61.464,186.418 61.464,189.077 63.104,190.717C64.744,192.357 67.404,192.357 69.044,190.717C70.684,189.077 70.684,186.418 69.044,184.777C67.404,183.137 64.744,183.137 63.104,184.777Z" style="fill:rgb(28,183,143);fill-rule:nonzero;"/>
        <path d="M51.355,158.304C50.468,156.161 48.011,155.144 45.868,156.031C43.725,156.919 42.707,159.376 43.595,161.519C44.482,163.662 46.939,164.68 49.082,163.792C51.225,162.904 52.243,160.447 51.355,158.304Z" style="fill:rgb(28,183,143);fill-rule:nonzero;"/>
        <path d="M45.144,127.077C45.144,124.758 43.263,122.877 40.944,122.877C38.624,122.877 36.744,124.758 36.744,127.077C36.744,129.397 38.624,131.278 40.944,131.278C43.263,131.278 45.144,129.397 45.144,127.077Z" style="fill:rgb(28,183,143);fill-rule:nonzero;"/>
        <path d="M45.868,98.124C48.011,99.011 50.468,97.994 51.355,95.851C52.243,93.708 51.225,91.251 49.082,90.363C46.939,89.475 44.482,90.493 43.595,92.636C42.707,94.779 43.725,97.236 45.868,98.124Z" style="fill:rgb(28,183,143);fill-rule:nonzero;"/>
        <path d="M69.044,69.378C70.684,67.737 70.684,65.078 69.044,63.438C67.404,61.798 64.745,61.798 63.105,63.438C61.464,65.078 61.464,67.737 63.105,69.378C64.745,71.018 67.404,71.018 69.044,69.378Z" style="fill:rgb(28,183,143);fill-rule:nonzero;"/>
        <path d="M95.517,51.689C97.66,50.801 98.678,48.344 97.79,46.201C96.903,44.058 94.446,43.041 92.303,43.928C90.16,44.816 89.142,47.273 90.03,49.416C90.917,51.559 93.374,52.577 95.517,51.689Z" style="fill:rgb(28,183,143);fill-rule:nonzero;"/>
        <path d="M126.745,45.478C129.065,45.478 130.945,43.597 130.945,41.278C130.945,38.958 129.065,37.078 126.745,37.078C124.425,37.078 122.545,38.958 122.545,41.278C122.545,43.597 124.425,45.478 126.745,45.478Z" style="fill:rgb(28,183,143);fill-rule:nonzero;"/>
        <path d="M147.823,76.191C144.762,74.922 141.252,76.376 139.984,79.438C138.716,82.499 140.17,86.009 143.231,87.277C146.292,88.545 149.802,87.091 151.07,84.03C152.339,80.968 150.885,77.459 147.823,76.191Z" style="fill:rgb(28,183,143);fill-rule:nonzero;"/>
        <path d="M157.207,88.131C154.864,90.474 154.864,94.273 157.207,96.616C159.55,98.959 163.349,98.959 165.692,96.616C168.036,94.273 168.036,90.474 165.692,88.131C163.349,85.787 159.55,85.787 157.207,88.131Z" style="fill:rgb(28,183,143);fill-rule:nonzero;"/>
        <path d="M166.546,110.592C167.814,113.653 171.324,115.107 174.385,113.839C177.447,112.571 178.9,109.061 177.632,105.999C176.364,102.938 172.854,101.484 169.793,102.752C166.731,104.02 165.278,107.53 166.546,110.592Z" style="fill:rgb(28,183,143);fill-rule:nonzero;"/>
        <path d="M175.825,121.078C172.511,121.078 169.825,123.764 169.825,127.078C169.825,130.392 172.511,133.078 175.825,133.078C179.139,133.078 181.825,130.392 181.825,127.078C181.825,123.764 179.139,121.078 175.825,121.078Z" style="fill:rgb(28,183,143);fill-rule:nonzero;"/>
        <path d="M169.793,151.403C172.854,152.671 176.364,151.217 177.632,148.156C178.9,145.094 177.446,141.585 174.385,140.317C171.323,139.048 167.814,140.502 166.546,143.564C165.277,146.625 166.731,150.135 169.793,151.403Z" style="fill:rgb(28,183,143);fill-rule:nonzero;"/>
        <path d="M165.692,157.54C163.349,155.197 159.55,155.197 157.207,157.54C154.864,159.883 154.864,163.682 157.207,166.025C159.55,168.368 163.349,168.368 165.692,166.025C168.035,163.682 168.035,159.883 165.692,157.54Z" style="fill:rgb(28,183,143);fill-rule:nonzero;"/>
        <path d="M147.823,177.965C150.884,176.697 152.338,173.187 151.07,170.126C149.802,167.064 146.292,165.61 143.231,166.878C140.169,168.147 138.715,171.656 139.983,174.718C141.252,177.779 144.761,179.233 147.823,177.965Z" style="fill:rgb(28,183,143);fill-rule:nonzero;"/>
        <path d="M126.744,182.158C130.058,182.158 132.745,179.471 132.745,176.158C132.745,172.844 130.058,170.158 126.744,170.158C123.431,170.158 120.744,172.844 120.744,176.158C120.744,179.471 123.431,182.158 126.744,182.158Z" style="fill:rgb(28,183,143);fill-rule:nonzero;"/>
        <path d="M105.666,177.965C108.728,179.233 112.238,177.779 113.506,174.718C114.774,171.656 113.32,168.146 110.258,166.878C107.197,165.61 103.687,167.064 102.419,170.125C101.151,173.187 102.605,176.697 105.666,177.965Z" style="fill:rgb(28,183,143);fill-rule:nonzero;"/>
        <path d="M96.282,166.025C98.625,163.682 98.625,159.883 96.282,157.54C93.939,155.196 90.14,155.196 87.797,157.54C85.453,159.883 85.453,163.682 87.797,166.025C90.14,168.368 93.939,168.368 96.282,166.025Z" style="fill:rgb(28,183,143);fill-rule:nonzero;"/>
        <path d="M86.943,143.563C85.675,140.502 82.165,139.048 79.104,140.316C76.042,141.584 74.589,145.094 75.857,148.156C77.125,151.217 80.635,152.671 83.696,151.403C86.758,150.135 88.211,146.625 86.943,143.563Z" style="fill:rgb(28,183,143);fill-rule:nonzero;"/>
        <path d="M71.664,127.077C71.664,130.392 74.35,133.077 77.664,133.077C80.978,133.077 83.664,130.392 83.664,127.077C83.664,123.764 80.978,121.077 77.664,121.077C74.35,121.077 71.664,123.764 71.664,127.077Z" style="fill:rgb(28,183,143);fill-rule:nonzero;"/>
        <path d="M83.696,102.752C80.635,101.484 77.125,102.938 75.857,105.999C74.589,109.06 76.043,112.57 79.104,113.838C82.166,115.106 85.675,113.653 86.944,110.591C88.212,107.53 86.758,104.02 83.696,102.752Z" style="fill:rgb(28,183,143);fill-rule:nonzero;"/>
        <path d="M87.797,96.616C90.14,98.959 93.939,98.959 96.282,96.616C98.625,94.272 98.625,90.473 96.282,88.13C93.939,85.787 90.14,85.787 87.797,88.13C85.454,90.473 85.454,94.272 87.797,96.616Z" style="fill:rgb(28,183,143);fill-rule:nonzero;"/>
        <path d="M105.667,76.19C102.605,77.458 101.151,80.968 102.419,84.03C103.688,87.091 107.197,88.545 110.259,87.277C113.32,86.009 114.774,82.499 113.506,79.438C112.238,76.376 108.728,74.922 105.667,76.19Z" style="fill:rgb(28,183,143);fill-rule:nonzero;"/>
        <path d="M126.745,71.998C123.431,71.998 120.745,74.684 120.745,77.998C120.745,81.311 123.431,83.998 126.745,83.998C130.059,83.998 132.745,81.311 132.745,77.998C132.745,74.684 130.059,71.998 126.745,71.998Z" style="fill:rgb(28,183,143);fill-rule:nonzero;"/>
        <path d="M163.561,71.952C160.531,69.928 156.433,70.743 154.408,73.773C152.383,76.803 153.198,80.901 156.229,82.926C159.259,84.951 163.357,84.135 165.381,81.105C167.406,78.075 166.591,73.977 163.561,71.952Z" style="fill:rgb(28,183,143);fill-rule:nonzero;"/>
        <path d="M172.701,88.417C169.671,90.442 168.856,94.539 170.881,97.57C172.905,100.599 177.003,101.415 180.033,99.39C183.064,97.366 183.879,93.268 181.854,90.238C179.829,87.207 175.731,86.392 172.701,88.417Z" style="fill:rgb(28,183,143);fill-rule:nonzero;"/>
        <path d="M178.813,116.705C179.524,120.28 182.998,122.601 186.573,121.89C190.147,121.179 192.468,117.705 191.757,114.131C191.046,110.556 187.572,108.235 183.998,108.946C180.424,109.657 178.102,113.131 178.813,116.705Z" style="fill:rgb(28,183,143);fill-rule:nonzero;"/>
        <path d="M191.763,139.995C192.474,136.421 190.153,132.947 186.578,132.236C183.004,131.526 179.53,133.846 178.819,137.421C178.108,140.995 180.429,144.469 184.004,145.18C187.578,145.891 191.052,143.57 191.763,139.995Z" style="fill:rgb(28,183,143);fill-rule:nonzero;"/>
        <path d="M172.718,165.714C175.748,167.739 179.846,166.924 181.87,163.894C183.895,160.863 183.08,156.766 180.05,154.741C177.019,152.716 172.922,153.531 170.897,156.561C168.872,159.592 169.687,163.689 172.718,165.714Z" style="fill:rgb(28,183,143);fill-rule:nonzero;"/>
        <path d="M163.585,182.187C166.615,180.162 167.43,176.064 165.406,173.034C163.381,170.004 159.283,169.189 156.253,171.213C153.223,173.238 152.408,177.336 154.432,180.366C156.457,183.396 160.555,184.211 163.585,182.187Z" style="fill:rgb(28,183,143);fill-rule:nonzero;"/>
        <path d="M139.691,192.09C143.266,191.379 145.587,187.905 144.876,184.331C144.165,180.756 140.691,178.435 137.117,179.146C133.542,179.857 131.221,183.331 131.932,186.905C132.643,190.48 136.117,192.801 139.691,192.09Z" style="fill:rgb(28,183,143);fill-rule:nonzero;"/>
        <path d="M113.827,192.096C117.401,192.807 120.875,190.485 121.586,186.911C122.297,183.337 119.976,179.863 116.401,179.152C112.827,178.441 109.353,180.762 108.642,184.336C107.931,187.911 110.252,191.385 113.827,192.096Z" style="fill:rgb(28,183,143);fill-rule:nonzero;"/>
        <path d="M89.928,182.203C92.958,184.228 97.056,183.413 99.081,180.382C101.106,177.352 100.291,173.254 97.26,171.23C94.23,169.205 90.132,170.02 88.108,173.05C86.083,176.08 86.898,180.178 89.928,182.203Z" style="fill:rgb(28,183,143);fill-rule:nonzero;"/>
        <path d="M80.788,165.738C83.818,163.714 84.633,159.616 82.608,156.586C80.584,153.555 76.486,152.74 73.456,154.765C70.425,156.79 69.61,160.888 71.635,163.918C73.66,166.948 77.758,167.763 80.788,165.738Z" style="fill:rgb(28,183,143);fill-rule:nonzero;"/>
        <path d="M74.676,137.449C73.965,133.875 70.491,131.554 66.916,132.265C63.342,132.976 61.021,136.45 61.732,140.024C62.443,143.599 65.917,145.92 69.491,145.209C73.065,144.498 75.387,141.024 74.676,137.449Z" style="fill:rgb(28,183,143);fill-rule:nonzero;"/>
        <path d="M61.726,114.159C61.015,117.734 63.336,121.208 66.911,121.919C70.485,122.63 73.959,120.309 74.67,116.734C75.381,113.16 73.06,109.686 69.485,108.975C65.911,108.264 62.437,110.585 61.726,114.159Z" style="fill:rgb(28,183,143);fill-rule:nonzero;"/>
        <path d="M80.771,88.441C77.741,86.417 73.643,87.232 71.619,90.262C69.594,93.292 70.409,97.39 73.439,99.415C76.47,101.439 80.567,100.624 82.592,97.594C84.617,94.564 83.802,90.466 80.771,88.441Z" style="fill:rgb(28,183,143);fill-rule:nonzero;"/>
        <path d="M97.236,82.942C100.267,80.917 101.082,76.819 99.057,73.789C97.032,70.759 92.934,69.944 89.904,71.969C86.874,73.993 86.059,78.091 88.083,81.121C90.108,84.152 94.206,84.967 97.236,82.942Z" style="fill:rgb(28,183,143);fill-rule:nonzero;"/>
        <path d="M113.798,62.065C110.224,62.776 107.902,66.25 108.613,69.825C109.324,73.399 112.798,75.72 116.373,75.009C119.947,74.298 122.268,70.824 121.557,67.25C120.846,63.676 117.372,61.354 113.798,62.065Z" style="fill:rgb(28,183,143);fill-rule:nonzero;"/>
        <path d="M139.663,62.06C136.088,61.349 132.614,63.67 131.903,67.244C131.192,70.819 133.514,74.293 137.088,75.004C140.662,75.715 144.136,73.393 144.847,69.819C145.558,66.245 143.237,62.771 139.663,62.06Z" style="fill:rgb(28,183,143);fill-rule:nonzero;"/>
        <path d="M145.727,92.084C144.623,93.737 145.068,95.972 146.72,97.077C148.373,98.181 150.608,97.736 151.713,96.084C152.817,94.431 152.373,92.196 150.72,91.091C149.067,89.987 146.832,90.431 145.727,92.084Z" style="fill:rgb(28,183,143);fill-rule:nonzero;"/>
        <path d="M157.674,102.012C156.021,103.116 155.576,105.351 156.681,107.004C157.785,108.657 160.02,109.102 161.673,107.997C163.326,106.893 163.771,104.658 162.666,103.005C161.562,101.352 159.327,100.907 157.674,102.012Z" style="fill:rgb(28,183,143);fill-rule:nonzero;"/>
        <path d="M162.084,119.988C162.472,121.938 164.367,123.204 166.316,122.816C168.266,122.428 169.532,120.534 169.144,118.584C168.756,116.634 166.861,115.368 164.912,115.756C162.962,116.144 161.696,118.039 162.084,119.988Z" style="fill:rgb(28,183,143);fill-rule:nonzero;"/>
        <path d="M169.167,135.456C169.555,133.506 168.289,131.611 166.339,131.224C164.389,130.836 162.495,132.102 162.107,134.052C161.719,136.001 162.985,137.896 164.935,138.284C166.884,138.672 168.779,137.406 169.167,135.456Z" style="fill:rgb(28,183,143);fill-rule:nonzero;"/>
        <path d="M157.739,152.046C159.392,153.15 161.627,152.705 162.732,151.053C163.836,149.4 163.391,147.164 161.738,146.06C160.086,144.956 157.85,145.4 156.746,147.053C155.642,148.706 156.086,150.941 157.739,152.046Z" style="fill:rgb(28,183,143);fill-rule:nonzero;"/>
        <path d="M151.81,158.007C150.706,156.354 148.471,155.909 146.818,157.014C145.165,158.118 144.721,160.353 145.825,162.006C146.929,163.659 149.164,164.103 150.817,162.999C152.47,161.895 152.915,159.659 151.81,158.007Z" style="fill:rgb(28,183,143);fill-rule:nonzero;"/>
        <path d="M135.238,169.477C137.188,169.089 138.454,167.194 138.066,165.244C137.678,163.295 135.784,162.029 133.834,162.417C131.884,162.804 130.618,164.699 131.006,166.649C131.394,168.599 133.289,169.865 135.238,169.477Z" style="fill:rgb(28,183,143);fill-rule:nonzero;"/>
        <path d="M118.366,169.5C120.316,169.888 122.211,168.621 122.599,166.672C122.986,164.722 121.72,162.827 119.771,162.439C117.821,162.052 115.926,163.318 115.538,165.267C115.15,167.217 116.417,169.112 118.366,169.5Z" style="fill:rgb(28,183,143);fill-rule:nonzero;"/>
        <path d="M102.77,163.064C104.423,164.169 106.658,163.724 107.762,162.071C108.867,160.418 108.422,158.183 106.769,157.079C105.116,155.974 102.881,156.419 101.777,158.072C100.672,159.725 101.117,161.96 102.77,163.064Z" style="fill:rgb(28,183,143);fill-rule:nonzero;"/>
        <path d="M95.815,152.143C97.468,151.039 97.913,148.804 96.808,147.151C95.704,145.498 93.469,145.053 91.816,146.158C90.163,147.262 89.718,149.497 90.823,151.15C91.927,152.803 94.162,153.247 95.815,152.143Z" style="fill:rgb(28,183,143);fill-rule:nonzero;"/>
        <path d="M88.577,138.399C90.527,138.011 91.793,136.116 91.405,134.167C91.017,132.217 89.123,130.951 87.173,131.339C85.223,131.726 83.957,133.621 84.345,135.571C84.733,137.521 86.628,138.787 88.577,138.399Z" style="fill:rgb(28,183,143);fill-rule:nonzero;"/>
        <path d="M84.322,118.699C83.934,120.649 85.2,122.543 87.15,122.931C89.1,123.319 90.995,122.053 91.382,120.103C91.77,118.154 90.504,116.259 88.554,115.871C86.605,115.483 84.71,116.749 84.322,118.699Z" style="fill:rgb(28,183,143);fill-rule:nonzero;"/>
        <path d="M91.751,108.095C93.403,109.199 95.639,108.755 96.743,107.102C97.847,105.449 97.403,103.214 95.75,102.109C94.097,101.005 91.862,101.45 90.758,103.102C89.653,104.755 90.098,106.99 91.751,108.095Z" style="fill:rgb(28,183,143);fill-rule:nonzero;"/>
        <path d="M101.679,96.149C102.783,97.802 105.019,98.246 106.672,97.142C108.324,96.037 108.769,93.802 107.665,92.149C106.56,90.497 104.325,90.052 102.672,91.156C101.019,92.261 100.575,94.496 101.679,96.149Z" style="fill:rgb(28,183,143);fill-rule:nonzero;"/>
        <path d="M119.656,91.739C121.605,91.351 122.871,89.456 122.484,87.507C122.096,85.557 120.201,84.291 118.251,84.679C116.302,85.066 115.035,86.961 115.423,88.911C115.811,90.861 117.706,92.127 119.656,91.739Z" style="fill:rgb(28,183,143);fill-rule:nonzero;"/>
        <path d="M137.951,88.888C138.339,86.938 137.073,85.043 135.123,84.656C133.174,84.268 131.279,85.534 130.891,87.484C130.503,89.433 131.769,91.328 133.719,91.716C135.669,92.104 137.563,90.838 137.951,88.888Z" style="fill:rgb(28,183,143);fill-rule:nonzero;"/>
        <path d="M167.144,66.352C171,68.929 176.216,67.892 178.793,64.035C181.37,60.179 180.332,54.963 176.476,52.386C172.619,49.809 167.404,50.847 164.827,54.703C162.25,58.56 163.287,63.775 167.144,66.352Z" style="fill:rgb(28,183,143);fill-rule:nonzero;"/>
        <path d="M187.307,86.435C189.884,90.291 195.1,91.329 198.956,88.752C202.813,86.175 203.85,80.96 201.273,77.103C198.697,73.246 193.481,72.209 189.624,74.786C185.768,77.363 184.73,82.578 187.307,86.435Z" style="fill:rgb(28,183,143);fill-rule:nonzero;"/>
        <path d="M204.849,102.829C200.3,103.734 197.346,108.155 198.251,112.704C199.156,117.254 203.577,120.208 208.126,119.303C212.676,118.398 215.63,113.977 214.725,109.427C213.82,104.878 209.399,101.924 204.849,102.829Z" style="fill:rgb(28,183,143);fill-rule:nonzero;"/>
        <path d="M208.184,134.564C203.634,133.659 199.213,136.613 198.308,141.163C197.403,145.712 200.357,150.133 204.907,151.038C209.456,151.943 213.877,148.989 214.782,144.439C215.687,139.89 212.733,135.469 208.184,134.564Z" style="fill:rgb(28,183,143);fill-rule:nonzero;"/>
        <path d="M199.119,165.159C195.263,162.582 190.047,163.62 187.47,167.476C184.894,171.333 185.931,176.549 189.788,179.125C193.644,181.702 198.86,180.665 201.437,176.808C204.013,172.952 202.976,167.736 199.119,165.159Z" style="fill:rgb(28,183,143);fill-rule:nonzero;"/>
        <path d="M167.388,187.64C163.531,190.217 162.494,195.432 165.071,199.289C167.648,203.146 172.863,204.183 176.72,201.606C180.576,199.029 181.614,193.814 179.037,189.957C176.46,186.101 171.245,185.063 167.388,187.64Z" style="fill:rgb(28,183,143);fill-rule:nonzero;"/>
        <path d="M141.118,198.583C136.569,199.488 133.614,203.91 134.519,208.459C135.424,213.008 139.846,215.962 144.395,215.058C148.944,214.153 151.898,209.731 150.993,205.182C150.088,200.633 145.667,197.679 141.118,198.583Z" style="fill:rgb(28,183,143);fill-rule:nonzero;"/>
        <path d="M112.66,198.641C108.11,197.736 103.689,200.69 102.784,205.239C101.879,209.789 104.833,214.21 109.383,215.115C113.932,216.02 118.353,213.065 119.258,208.516C120.163,203.967 117.209,199.546 112.66,198.641Z" style="fill:rgb(28,183,143);fill-rule:nonzero;"/>
        <path d="M86.345,187.803C82.489,185.226 77.273,186.264 74.696,190.12C72.119,193.977 73.157,199.192 77.013,201.769C80.87,204.346 86.085,203.309 88.662,199.452C91.239,195.595 90.202,190.38 86.345,187.803Z" style="fill:rgb(28,183,143);fill-rule:nonzero;"/>
        <path d="M66.182,167.721C63.605,163.864 58.389,162.827 54.533,165.404C50.676,167.98 49.639,173.196 52.216,177.052C54.793,180.909 60.008,181.946 63.865,179.37C67.721,176.793 68.759,171.577 66.182,167.721Z" style="fill:rgb(28,183,143);fill-rule:nonzero;"/>
        <path d="M48.64,151.326C53.189,150.421 56.143,146 55.238,141.451C54.333,136.901 49.912,133.947 45.363,134.852C40.814,135.757 37.859,140.178 38.764,144.727C39.669,149.277 44.09,152.231 48.64,151.326Z" style="fill:rgb(28,183,143);fill-rule:nonzero;"/>
        <path d="M45.305,119.591C49.855,120.496 54.276,117.542 55.181,112.992C56.086,108.443 53.132,104.022 48.582,103.117C44.033,102.212 39.612,105.166 38.707,109.715C37.802,114.265 40.756,118.686 45.305,119.591Z" style="fill:rgb(28,183,143);fill-rule:nonzero;"/>
        <path d="M54.37,88.996C58.226,91.573 63.442,90.535 66.019,86.679C68.596,82.822 67.558,77.607 63.701,75.03C59.845,72.453 54.629,73.49 52.053,77.347C49.476,81.204 50.513,86.419 54.37,88.996Z" style="fill:rgb(28,183,143);fill-rule:nonzero;"/>
        <path d="M86.101,66.515C89.958,63.938 90.995,58.723 88.418,54.866C85.841,51.01 80.626,49.972 76.769,52.549C72.913,55.126 71.875,60.342 74.452,64.198C77.029,68.055 82.244,69.092 86.101,66.515Z" style="fill:rgb(28,183,143);fill-rule:nonzero;"/>
        <path d="M112.372,55.572C116.921,54.667 119.875,50.246 118.97,45.696C118.065,41.147 113.644,38.193 109.095,39.098C104.546,40.003 101.591,44.424 102.496,48.973C103.401,53.523 107.822,56.477 112.372,55.572Z" style="fill:rgb(28,183,143);fill-rule:nonzero;"/>
        <path d="M140.83,55.515C145.379,56.42 149.8,53.465 150.705,48.916C151.61,44.367 148.656,39.945 144.107,39.041C139.558,38.136 135.136,41.09 134.231,45.639C133.326,50.188 136.281,54.61 140.83,55.515Z" style="fill:rgb(28,183,143);fill-rule:nonzero;"/>
        <path d="M287.611,99.649C275.941,99.649 269.432,104.362 269.432,127.144C269.432,151.385 275.604,155.536 287.387,155.536C298.836,155.536 305.568,151.832 305.568,127.257C305.568,103.8 300.63,99.649 287.611,99.649ZM287.052,168.665C264.382,168.665 253.498,160.137 253.498,127.144C253.498,93.59 268.197,86.52 288.061,86.52C310.619,86.52 321.615,92.467 321.615,127.032C321.615,159.913 310.619,168.665 287.052,168.665Z" style="fill:rgb(4,55,67);fill-rule:nonzero;"/>
        <path d="M355.743,155.986C367.301,155.986 369.77,151.944 369.77,138.254C369.77,126.695 367.863,122.656 358.886,122.656C355.63,122.656 351.479,123.103 348.898,124.563C348.336,124.788 347.774,125.237 347.549,125.909C347.327,126.47 347.327,127.257 347.327,128.041L347.327,154.75C349.235,155.424 352.712,155.986 355.743,155.986ZM343.847,194.591L335.207,194.591C333.297,194.591 332.289,194.029 332.289,191.223L332.289,114.687C332.289,111.769 333.297,110.76 335.879,110.76L343.061,110.76C345.755,110.76 346.878,111.319 346.99,113.229L347.103,114.8C350.693,111.095 356.979,109.637 364.049,109.637C377.402,109.637 384.921,115.92 384.921,138.366C384.921,162.719 376.056,168.218 357.538,168.218C354.173,168.218 349.459,167.657 347.327,166.646L347.327,191.223C347.327,193.804 346.204,194.591 343.847,194.591Z" style="fill:rgb(4,55,67);fill-rule:nonzero;"/>
        <path d="M430.27,132.754C430.382,132.307 430.382,131.521 430.382,130.847C430.382,123.889 428.925,120.299 420.506,120.299C411.979,120.299 409.397,124.338 409.173,132.754L430.27,132.754ZM421.855,155.874C428.026,155.874 433.526,154.975 437.003,153.854C437.677,153.517 439.022,153.292 439.921,153.292C441.154,153.292 441.829,153.966 442.166,155.087C442.84,157.219 443.736,160.699 443.736,162.045C443.736,163.505 443.177,164.289 441.829,164.963C436.891,167.544 427.127,168.665 420.506,168.665C399.971,168.665 393.685,159.463 393.685,139.265C393.685,117.718 402.215,109.3 420.731,109.3C442.39,109.3 444.635,121.42 444.635,139.265C444.635,140.947 444.298,142.405 443.401,143.079C442.84,143.529 441.941,143.753 440.708,143.753L408.948,143.753C409.173,153.854 413.437,155.874 421.855,155.874Z" style="fill:rgb(4,55,67);fill-rule:nonzero;"/>
        <path d="M467.987,167.32L458.673,167.32C456.763,167.32 455.867,166.196 455.867,164.177L455.867,114.35C455.867,112.106 456.875,110.76 459.232,110.76L467.313,110.76C469.67,110.76 470.231,111.432 470.569,113.339L470.793,115.024C474.383,111.432 481.79,109.525 488.747,109.525C499.41,109.525 503.561,112.106 505.244,116.594C506.367,119.513 506.48,123.44 506.48,127.594L506.48,164.177C506.48,166.084 505.693,167.32 503.561,167.32L494.247,167.32C492.34,167.32 491.441,166.084 491.441,164.177L491.441,131.296C491.441,129.39 491.329,127.144 490.879,125.796C490.096,123.44 487.961,122.544 483.472,122.544C478.872,122.544 475.619,123.44 473.934,124.114C473.262,124.338 472.251,124.788 471.577,125.684C471.24,126.246 470.906,126.92 470.906,128.939L470.906,164.177C470.906,166.084 469.894,167.32 467.987,167.32Z" style="fill:rgb(4,55,67);fill-rule:nonzero;"/>
        <path d="M554.632,99.649C542.961,99.649 536.453,104.362 536.453,127.144C536.453,151.385 542.624,155.536 554.407,155.536C565.856,155.536 572.589,151.832 572.589,127.257C572.589,103.8 567.651,99.649 554.632,99.649ZM554.073,168.665C531.403,168.665 520.518,160.137 520.518,127.144C520.518,93.59 535.217,86.52 555.081,86.52C577.639,86.52 588.636,92.467 588.636,127.032C588.636,159.913 577.639,168.665 554.073,168.665Z" style="fill:rgb(4,55,67);fill-rule:nonzero;"/>
        <path d="M624.224,142.742C619.511,142.742 616.143,143.416 614.236,144.762C613,145.661 612.104,147.118 612.104,149.7C612.104,154.076 614.123,156.657 621.193,156.657C625.345,156.657 628.263,155.874 630.058,154.638C630.62,154.301 631.406,153.629 631.631,152.955C631.965,152.056 632.078,150.823 632.078,149.7L632.078,143.079C629.833,142.854 626.581,142.742 624.224,142.742ZM617.266,168.331C601.778,168.331 597.852,159.576 597.852,149.924C597.852,143.304 599.871,139.04 604.36,136.009C607.952,133.653 614.573,132.529 622.204,132.529C625.457,132.529 629.162,132.641 632.078,132.979L632.078,130.397C632.078,128.939 631.965,127.144 631.406,125.796C630.62,123.777 628.375,122.544 621.867,122.544C617.601,122.544 613.561,122.881 609.859,123.44C608.623,123.664 606.604,124.001 605.817,124.001C604.472,124.001 603.573,123.103 603.236,121.757C602.789,120.075 602.452,116.257 602.452,114.8C602.452,112.892 603.348,111.994 604.921,111.544C610.98,109.749 618.836,109.3 623.887,109.3C634.659,109.3 640.159,110.76 643.077,113.788C646.108,116.819 646.891,121.083 646.891,127.816L646.891,163.28C646.891,166.196 645.658,167.32 643.189,167.32L636.569,167.32C633.875,167.32 632.976,166.758 632.752,164.851L632.527,162.831C628.488,166.758 623.1,168.331 617.266,168.331Z" style="fill:rgb(4,55,67);fill-rule:nonzero;"/>
        <path d="M673.721,167.32L664.407,167.32C662.612,167.32 661.601,166.421 661.601,164.177L661.601,86.857C661.601,84.835 662.275,83.602 664.407,83.602L673.946,83.602C676.078,83.602 676.64,84.835 676.64,86.745L676.64,129.614L681.128,129.614C683.934,129.614 685.058,128.939 686.179,127.257L695.718,113.005C696.504,111.769 697.737,110.76 699.644,110.76L709.071,110.76C710.869,110.76 711.54,111.656 711.54,113.005C711.54,113.901 710.869,115.024 710.419,115.698C703.012,126.807 699.198,131.633 696.504,135.223C699.31,139.377 702.563,144.427 713.338,161.82C714.121,162.943 714.908,164.177 714.908,165.188C714.908,166.533 713.675,167.32 712.214,167.32L701.889,167.32C699.869,167.32 698.748,166.196 697.962,164.963L685.168,144.537C684.047,142.742 682.811,142.517 680.679,142.517L676.64,142.517L676.64,164.177C676.64,166.308 675.519,167.32 673.721,167.32Z" style="fill:rgb(4,55,67);fill-rule:nonzero;"/>
        <path d="M736.128,167.32L726.814,167.32C725.017,167.32 724.008,166.421 724.008,164.177L724.008,86.408C724.008,84.388 724.682,83.265 726.927,83.265L736.353,83.265C738.485,83.265 739.047,84.388 739.047,86.408L739.047,164.177C739.047,166.308 737.923,167.32 736.128,167.32Z" style="fill:rgb(4,55,67);fill-rule:nonzero;"/>
        <path d="M776.643,142.742C771.93,142.742 768.565,143.416 766.655,144.762C765.422,145.661 764.523,147.118 764.523,149.7C764.523,154.076 766.543,156.657 773.613,156.657C777.767,156.657 780.685,155.874 782.48,154.638C783.042,154.301 783.826,153.629 784.05,152.955C784.387,152.056 784.5,150.823 784.5,149.7L784.5,143.079C782.255,142.854 779,142.742 776.643,142.742ZM769.686,168.331C754.201,168.331 750.271,159.576 750.271,149.924C750.271,143.304 752.291,139.04 756.782,136.009C760.372,133.653 766.992,132.529 774.624,132.529C777.879,132.529 781.581,132.641 784.5,132.979L784.5,130.397C784.5,128.939 784.387,127.144 783.826,125.796C783.042,123.777 780.795,122.544 774.287,122.544C770.023,122.544 765.984,122.881 762.279,123.44C761.046,123.664 759.026,124.001 758.24,124.001C756.891,124.001 755.995,123.103 755.658,121.757C755.209,120.075 754.872,116.257 754.872,114.8C754.872,112.892 755.771,111.994 757.341,111.544C763.402,109.749 771.256,109.3 776.306,109.3C787.081,109.3 792.581,110.76 795.496,113.788C798.527,116.819 799.314,121.083 799.314,127.816L799.314,163.28C799.314,166.196 798.078,167.32 795.609,167.32L788.988,167.32C786.295,167.32 785.399,166.758 785.174,164.851L784.949,162.831C780.907,166.758 775.523,168.331 769.686,168.331Z" style="fill:rgb(4,55,67);fill-rule:nonzero;"/>
        <path d="M825.582,167.32L816.268,167.32C814.361,167.32 813.462,166.196 813.462,164.177L813.462,114.35C813.462,112.106 814.473,110.76 816.829,110.76L824.911,110.76C827.267,110.76 827.826,111.432 828.163,113.339L828.388,115.024C831.98,111.432 839.385,109.525 846.345,109.525C857.005,109.525 861.156,112.106 862.841,116.594C863.962,119.513 864.075,123.44 864.075,127.594L864.075,164.177C864.075,166.084 863.291,167.32 861.156,167.32L851.842,167.32C849.935,167.32 849.036,166.084 849.036,164.177L849.036,131.296C849.036,129.39 848.926,127.144 848.477,125.796C847.69,123.44 845.559,122.544 841.07,122.544C836.469,122.544 833.214,123.44 831.531,124.114C830.857,124.338 829.846,124.788 829.174,125.684C828.837,126.246 828.5,126.92 828.5,128.939L828.5,164.177C828.5,166.084 827.489,167.32 825.582,167.32Z" style="fill:rgb(4,55,67);fill-rule:nonzero;"/>
        <path d="M913.465,123.552C911.555,122.656 907.966,122.319 905.047,122.319C893.713,122.319 890.907,126.358 890.907,139.936C890.907,151.497 893.938,155.649 902.241,155.649C905.497,155.649 909.199,155.199 911.892,153.517C912.454,153.067 912.904,152.618 913.128,152.056C913.465,151.385 913.465,150.598 913.465,149.812L913.465,123.552ZM924.911,167.32L918.066,167.32C915.485,167.32 914.586,166.983 914.361,164.963L914.137,163.28C910.322,167.32 904.485,168.553 897.078,168.553C883.613,168.553 875.756,161.036 875.756,140.161C875.756,115.808 884.849,109.412 903.926,109.412C907.067,109.412 911.443,109.862 913.465,110.648L913.465,86.633C913.465,84.051 914.698,83.265 916.943,83.265L925.585,83.265C927.38,83.265 928.501,83.827 928.501,86.633L928.501,163.618C928.501,166.533 927.493,167.32 924.911,167.32Z" style="fill:rgb(4,55,67);fill-rule:nonzero;"/>
    </g>
</svg>
