<svg width="106" height="102" viewBox="0 0 106 102" fill="none" xmlns="http://www.w3.org/2000/svg">
<path d="M0 0.776157H7.63817L16.2311 37.5143H16.4857L25.9698 0.776157H33.9899L43.6012 37.5143H43.8558L52.1305 0.776157H59.5141L48.2478 45.2758H39.2729L29.9798 9.63729H29.7252L20.4321 45.2758H11.4573L0 0.776157ZM62.271 23.026C62.271 19.7058 62.7802 16.6442 63.7986 13.8415C64.8595 11.0387 66.3447 8.62394 68.2542 6.59734C70.1638 4.52758 72.4552 2.91059 75.1286 1.74635C77.8019 0.582119 80.794 0 84.1039 0C87.3283 0 90.2781 0.582119 92.9515 1.74635C95.6666 2.91059 97.9799 4.52758 99.8895 6.59734C101.841 8.62394 103.348 11.0387 104.409 13.8415C105.469 16.6442 106 19.7058 106 23.026C106 26.3462 105.469 29.4078 104.409 32.2105C103.348 35.0133 101.841 37.4496 99.8895 39.5193C97.9799 41.5459 95.6666 43.1414 92.9515 44.3056C90.2781 45.4699 87.3283 46.052 84.1039 46.052C80.794 46.052 77.8019 45.4699 75.1286 44.3056C72.4552 43.1414 70.1638 41.5459 68.2542 39.5193C66.3447 37.4496 64.8595 35.0133 63.7986 32.2105C62.7802 29.4078 62.271 26.3462 62.271 23.026ZM69.7182 23.026C69.7182 25.4407 70.0576 27.6614 70.7366 29.688C71.4156 31.6716 72.3916 33.4179 73.6646 34.9271C74.9376 36.3932 76.4441 37.5358 78.1838 38.3551C79.9666 39.1744 81.9398 39.584 84.1039 39.584C86.2681 39.584 88.2412 39.1744 90.0235 38.3551C91.8057 37.4927 93.3334 36.3285 94.6064 34.8624C95.8794 33.3963 96.8551 31.6499 97.5344 29.6233C98.2126 27.5967 98.5528 25.3976 98.5528 23.026C98.5528 20.6544 98.2126 18.4553 97.5344 16.4287C96.8551 14.4021 95.8794 12.6557 94.6064 11.1896C93.3334 9.72349 91.8057 8.58088 90.0235 7.76157C88.2412 6.89921 86.2681 6.46798 84.1039 6.46798C81.9398 6.46798 79.9666 6.87758 78.1838 7.69689C76.4441 8.5162 74.9376 9.68044 73.6646 11.1896C72.3916 12.6557 71.4156 14.4021 70.7366 16.4287C70.0576 18.4553 69.7182 20.6544 69.7182 23.026ZM33.8844 49.286H42.3501L58.6448 93.7857H51.0703L47.3149 82.9841H28.6014L24.8459 93.7857H17.5897L33.8844 49.286ZM37.8945 56.5301L30.7655 76.9043H45.2144L38.1491 56.5301H37.8945ZM60.6548 71.5358C60.6548 68.2156 61.164 65.1541 62.1825 62.3513C63.2434 59.5485 64.7285 57.1338 66.6381 55.1072C68.5476 53.0374 70.8391 51.4204 73.5124 50.2562C76.1858 49.0919 79.1774 48.5098 82.4878 48.5098C85.7121 48.5098 88.6619 49.0919 91.3353 50.2562C94.0504 51.4204 96.3638 53.0374 98.2733 55.1072C100.225 57.1338 101.731 59.5485 102.793 62.3513C103.853 65.1541 104.384 68.2156 104.384 71.5358C104.384 75.0285 103.789 78.241 102.602 81.1731C101.456 84.0622 99.8218 86.5415 97.7005 88.6113L105.975 97.2784L101.265 102L92.2901 92.4274C90.847 93.1173 89.2985 93.6348 87.6435 93.9797C86.0304 94.3678 84.3118 94.5618 82.4878 94.5618C79.1774 94.5618 76.1858 93.9797 73.5124 92.8155C70.8391 91.6512 68.5476 90.0558 66.6381 88.0292C64.7285 85.9594 63.2434 83.5231 62.1825 80.7204C61.164 77.9176 60.6548 74.856 60.6548 71.5358ZM68.102 71.5358C68.102 73.9505 68.4415 76.1712 69.1205 78.1978C69.7995 80.1814 70.7754 81.9277 72.0484 83.4369C73.3215 84.903 74.8279 86.0456 76.5677 86.8649C78.3499 87.6842 80.3236 88.0938 82.4878 88.0938C84.6519 88.0938 86.6251 87.6842 88.4073 86.8649C90.1896 86.0026 91.7172 84.8383 92.9902 83.3722C94.2633 81.9061 95.2389 80.1598 95.9182 78.1332C96.5965 76.1066 96.9366 73.9075 96.9366 71.5358C96.9366 69.1642 96.5965 66.9651 95.9182 64.9385C95.2389 62.9119 94.2633 61.1655 92.9902 59.6994C91.7172 58.2333 90.1896 57.0907 88.4073 56.2714C86.6251 55.409 84.6519 54.9778 82.4878 54.9778C80.3236 54.9778 78.3499 55.3874 76.5677 56.2067C74.8279 57.026 73.3215 58.1903 72.0484 59.6994C70.7754 61.1655 69.7995 62.9119 69.1205 64.9385C68.4415 66.9651 68.102 69.1642 68.102 71.5358Z" fill="black"/>
</svg>
